<svg xmlns="http://www.w3.org/2000/svg" version="1.1" xmlns:xlink="http://www.w3.org/1999/xlink" xmlns:svgjs="http://svgjs.dev/svgjs" width="2000" height="1247" viewBox="0 0 2000 1247"><g transform="matrix(1,0,0,1,-1.2121212121212466,0.504858299595071)"><svg viewBox="0 0 396 247" data-background-color="#ffffff" preserveAspectRatio="xMidYMid meet" height="1247" width="2000" xmlns="http://www.w3.org/2000/svg" xmlns:xlink="http://www.w3.org/1999/xlink"><g id="tight-bounds" transform="matrix(1,0,0,1,0.2400000000000091,-0.09999999999999432)"><svg viewBox="0 0 395.52 247.2" height="247.2" width="395.52"><g><svg></svg></g><g><svg viewBox="0 0 395.52 247.2" height="247.2" width="395.52"><mask id="54c5163c-27cd-4b13-8746-96fa22bf0c50"><rect width="640" height="400" fill="white"></rect><g transform="matrix(1,0,0,1,100.10074074074072,78.49632604492041)"><svg viewBox="0 0 195.31851851851854 90.20734791015916" height="90.20734791015916" width="195.31851851851854"><g><svg viewBox="0 0 195.31851851851854 90.20734791015916" height="90.20734791015916" width="195.31851851851854"><g><svg viewBox="0 0 195.31851851851854 90.20734791015916" height="90.20734791015916" width="195.31851851851854"><g id="SvgjsG1085"><svg viewBox="0 0 195.31851851851854 90.20734791015916" height="90.20734791015916" width="195.31851851851854" id="SvgjsSvg1084"><g><svg viewBox="0 0 195.31851851851854 90.20734791015916" height="90.20734791015916" width="195.31851851851854"><g transform="matrix(1,0,0,1,0,0)"><svg width="195.31851851851854" viewBox="-1 -37 88.15 41.25" height="90.20734791015916" data-palette-color="#00ffff"><path d="M14.1 0L3 0 3-0.8 6.95-2.8 8-30.15 3.7-32.2 3.7-33 12.95-33 24.5-6.4 36-33 44.8-33 44.8-32.2 40.6-30.2 41.45-2.8 44.95-0.8 44.95 0 33.45 0 33.45-0.8 37.15-2.75 36.65-27.4 24.7 0.25 22.45 0.25 10.7-27.05 10.05-2.75 14.1-0.8 14.1 0ZM63.7 0L51.2 0 51.2-0.8 55.2-2.8 55.2-30.2 51.2-32.2 51.2-33 63.7-33 63.7-32.2 59.7-30.2 59.7-2.8 63.7-0.8 63.7 0ZM75.95 0L59.75-16.9 73.6-30.5 70.05-32.2 70.05-33 80.55-33 80.55-32.2 77.45-31 64.3-18.1 80.1-2.1 83.15-0.8 83.15 0 75.95 0Z" opacity="1" transform="matrix(1,0,0,1,0,0)" fill="black" class="wordmark-text-0" id="SvgjsPath1083" stroke-width="7" stroke="black" stroke-linejoin="round"></path></svg></g></svg></g></svg></g></svg></g><g></g></svg></g></svg></g></mask><g transform="matrix(1,0,0,1,100.10074074074072,78.49632604492041)"><svg viewBox="0 0 195.31851851851854 90.20734791015916" height="90.20734791015916" width="195.31851851851854"><g><svg viewBox="0 0 195.31851851851854 90.20734791015916" height="90.20734791015916" width="195.31851851851854"><g><svg viewBox="0 0 195.31851851851854 90.20734791015916" height="90.20734791015916" width="195.31851851851854"><g id="textblocktransform"><svg viewBox="0 0 195.31851851851854 90.20734791015916" height="90.20734791015916" width="195.31851851851854" id="textblock"><g><svg viewBox="0 0 195.31851851851854 90.20734791015916" height="90.20734791015916" width="195.31851851851854"><g transform="matrix(1,0,0,1,0,0)"><svg width="195.31851851851854" viewBox="-1 -37 88.15 41.25" height="90.20734791015916" data-palette-color="#00ffff"><path d="M14.1 0L3 0 3-0.8 6.95-2.8 8-30.15 3.7-32.2 3.7-33 12.95-33 24.5-6.4 36-33 44.8-33 44.8-32.2 40.6-30.2 41.45-2.8 44.95-0.8 44.95 0 33.45 0 33.45-0.8 37.15-2.75 36.65-27.4 24.7 0.25 22.45 0.25 10.7-27.05 10.05-2.75 14.1-0.8 14.1 0ZM63.7 0L51.2 0 51.2-0.8 55.2-2.8 55.2-30.2 51.2-32.2 51.2-33 63.7-33 63.7-32.2 59.7-30.2 59.7-2.8 63.7-0.8 63.7 0ZM75.95 0L59.75-16.9 73.6-30.5 70.05-32.2 70.05-33 80.55-33 80.55-32.2 77.45-31 64.3-18.1 80.1-2.1 83.15-0.8 83.15 0 75.95 0Z" opacity="1" transform="matrix(1,0,0,1,0,0)" fill="#000000" class="wordmark-text-0" data-fill-palette-color="primary" id="text-0"></path></svg></g></svg></g></svg></g></svg></g><g></g></svg></g></svg></g><g mask="url(#54c5163c-27cd-4b13-8746-96fa22bf0c50)"><g transform="matrix(10.59415802934446, 0, 0, 10.59415802934446, 1, 19.120413514604948)"><svg xmlns="http://www.w3.org/2000/svg" xmlns:xlink="http://www.w3.org/1999/xlink" version="1.1" x="0" y="0" viewBox="31.427 40.138 37.145 19.723999999999997" enable-background="new 0 0 100 100" xml:space="preserve" height="19.723999999999997" width="37.145" class="icon-none" data-fill-palette-color="accent" id="none"><path d="M41.29 40.138l-9.863 9.861 9.863 9.862 2.557-2.557-7.305-7.306 7.305-7.303L41.29 40.138zM58.709 40.138l-2.557 2.558 7.305 7.303-7.305 7.306 2.557 2.557 9.863-9.862L58.709 40.138z" fill="#000000" data-fill-palette-color="accent"></path></svg></g></g></svg></g><defs></defs></svg><rect width="395.52" height="247.2" fill="none" stroke="none" visibility="hidden"></rect></g></svg></g></svg>